<svg width="146" height="146" viewBox="0 0 146 146" fill="none" xmlns="http://www.w3.org/2000/svg">
<g filter="url(#filter0_d_22_122)">
<rect x="50" y="46" width="46" height="46" rx="23" fill="#F2C94C"/>
<path d="M71.235 63.192C71.0067 63.0637 70.7488 62.9974 70.4869 62.9996C70.2251 63.0019 69.9684 63.0727 69.7424 63.205C69.5163 63.3373 69.3289 63.5264 69.1987 63.7536C69.0684 63.9808 68.9999 64.2381 69 64.5V73.5C69.0001 73.7618 69.0687 74.019 69.199 74.2461C69.3293 74.4731 69.5168 74.6621 69.7428 74.7943C69.9688 74.9264 70.2254 74.9971 70.4872 74.9994C70.749 75.0016 71.0068 74.9353 71.235 74.807L79.235 70.307C79.4668 70.1765 79.6597 69.9866 79.794 69.7569C79.9282 69.5273 79.999 69.266 79.999 69C79.999 68.734 79.9282 68.4727 79.794 68.243C79.6597 68.0134 79.4668 67.8235 79.235 67.693L71.235 63.193V63.192Z" fill="#010F1C"/>
</g>
<defs>
<filter id="filter0_d_22_122" x="0" y="0" width="146" height="146" filterUnits="userSpaceOnUse" color-interpolation-filters="sRGB">
<feFlood flood-opacity="0" result="BackgroundImageFix"/>
<feColorMatrix in="SourceAlpha" type="matrix" values="0 0 0 0 0 0 0 0 0 0 0 0 0 0 0 0 0 0 127 0" result="hardAlpha"/>
<feOffset dy="4"/>
<feGaussianBlur stdDeviation="25"/>
<feComposite in2="hardAlpha" operator="out"/>
<feColorMatrix type="matrix" values="0 0 0 0 0 0 0 0 0 0 0 0 0 0 0 0 0 0 0.1 0"/>
<feBlend mode="normal" in2="BackgroundImageFix" result="effect1_dropShadow_22_122"/>
<feBlend mode="normal" in="SourceGraphic" in2="effect1_dropShadow_22_122" result="shape"/>
</filter>
</defs>
</svg>
